<?xml version="1.0" encoding="utf-8"?>

<!-- Uploaded to: SVG Repo, www.svgrepo.com, Generator: SVG Repo Mixer Tools -->
<svg version="1.1" id="Icons" xmlns="http://www.w3.org/2000/svg" xmlns:xlink="http://www.w3.org/1999/xlink" 
	 viewBox="0 0 32 32" xml:space="preserve">
<style type="text/css">
	.st0{fill:none;stroke:#000000;stroke-width:2;stroke-linecap:round;stroke-linejoin:round;stroke-miterlimit:10;}
</style>
<path d="M28.5,5.7l-11-5.6c-0.3-0.1-0.6-0.1-0.9,0l-11,5.6C5.2,5.9,5,6.2,5,6.6V9c0,0.6,0.4,1,1,1h22c0.6,0,1-0.4,1-1V6.6
	C29,6.2,28.8,5.9,28.5,5.7z"/>
<path d="M29.9,16.5C29.7,16.2,29.4,16,29,16c-2.2,0-4.3,1-5.6,2.8L22.5,20c-1.1,1.3-2.8,2-4.5,2h-3c-0.6,0-1-0.4-1-1s0.4-1,1-1h1.9
	c1.6,0,3.1-1.3,3.1-2.9c0,0,0-0.1,0-0.1c0-0.5-0.5-1-1-1h-6.1c-3.6,0-6.5,1.6-8.1,4.2l-2.7,4.2c-0.2,0.3-0.2,0.7,0,1l3,5
	c0.1,0.2,0.4,0.4,0.6,0.5c0.1,0,0.1,0,0.2,0c0.2,0,0.4-0.1,0.6-0.2c3.8-2.5,8.2-3.8,12.7-3.8c3.3,0,6.3-1.8,7.9-4.7l2.7-4.8
	C30,17.2,30,16.8,29.9,16.5z"/>
<path d="M26,14.5V12c0-0.6-0.4-1-1-1h-2c-0.6,0-1,0.4-1,1v5.3C23.1,16,24.4,15.1,26,14.5z"/>
<path d="M19,14v-2c0-0.6-0.4-1-1-1h-2c-0.6,0-1,0.4-1,1v2H19z"/>
<path d="M12,14.1V12c0-0.6-0.4-1-1-1H9c-0.6,0-1,0.4-1,1v3C9.2,14.5,10.6,14.2,12,14.1z"/>
</svg>